<?xml version="1.0" encoding="UTF-8" standalone="no"?>
<!-- Created with Inkscape (http://www.inkscape.org/) -->

<svg
   width="105.83333mm"
   height="154.79391mm"
   viewBox="0 0 105.83333 154.79391"
   version="1.1"
   id="svg1"
   xml:space="preserve"
   xmlns="http://www.w3.org/2000/svg"
   xmlns:svg="http://www.w3.org/2000/svg"><defs
     id="defs1" /><g
     id="layer1"
     transform="translate(-52.083329,-71.10305)"><path
       style="fill:#1a1a1a;stroke-width:0.55155"
       d="m 97.199573,225.86544 c -0.142267,-0.0421 -0.429117,-0.41621 -0.637449,-0.83135 -0.866854,-1.72738 -1.802466,-2.5097 -4.346138,-3.63406 -0.889077,-0.39299 -2.010113,-0.91451 -2.491186,-1.15895 -2.338799,-1.18832 -4.673506,-3.30662 -5.900567,-5.35361 -1.292177,-2.15562 -2.256485,-5.1994 -2.170107,-6.84978 l 0.04357,-0.83233 0.457197,0.80262 c 1.086736,1.90778 2.498147,2.99444 6.34511,4.88517 1.395505,0.68587 2.977715,1.5778 3.516033,1.98206 1.605359,1.20558 3.441116,3.72979 4.079646,5.60961 l 0.247756,0.72939 0.168107,-0.43753 c 1.411384,-3.67346 -1.740494,-10.14914 -7.058998,-14.50304 -3.996632,-3.27177 -8.842375,-5.36829 -14.394709,-6.2279 -1.883704,-0.29163 -5.254415,-0.33172 -6.676344,-0.0794 -0.999718,0.1774 -1.058177,0.20912 -1.061205,0.57587 -0.009,1.09012 -1.203383,2.76502 -2.980831,4.18007 -2.315997,1.84378 -4.166581,4.09591 -4.166581,5.07066 0,0.21816 -0.05174,0.24067 -0.276514,0.12036 -1.066036,-0.57052 -0.60997,-4.70538 0.680961,-6.1738 0.123481,-0.14045 0.183269,-0.25537 0.132857,-0.25537 -0.264959,0 -2.367165,1.43806 -2.795852,1.91257 -0.521397,0.57712 -0.951937,1.73713 -0.951937,2.56481 0,0.62379 -0.166099,0.61106 -0.714958,-0.0548 -1.099355,-1.33372 -1.192181,-3.64298 -0.191542,-4.76499 0.240316,-0.26946 0.235942,-0.27598 -0.115015,-0.17144 -1.130479,0.33674 -3.21048,2.03651 -3.21048,2.62359 0,0.41939 -0.268235,0.22811 -0.451686,-0.3221 -0.567981,-1.70353 0.146354,-3.90066 1.573335,-4.83922 l 0.756826,-0.49779 -0.752733,-0.45077 c -0.920769,-0.55139 -1.460792,-1.38949 -1.356665,-2.10551 0.08917,-0.61318 0.279973,-0.84222 1.023782,-1.22897 0.64067,-0.33312 2.323118,-0.43524 3.549474,-0.21545 l 0.621089,0.11131 -0.873098,-0.88676 c -1.077575,-1.09443 -1.799747,-2.51088 -2.191088,-4.29752 -0.158223,-0.72236 -0.289101,-1.41097 -0.290838,-1.53025 -0.0017,-0.11928 0.391292,0.22018 0.873402,0.75435 1.592468,1.76444 3.855561,3.28423 5.289024,3.55186 0.623202,0.11636 0.663426,0.0445 0.261335,-0.46664 -0.72215,-0.91806 -1.304267,-3.52089 -1.071309,-4.79015 l 0.133917,-0.72965 0.333329,0.64093 c 0.474206,0.91182 1.485424,1.94286 3.031198,3.09061 1.839911,1.36615 2.7924,2.70954 3.70206,5.2214 l 0.335619,0.92674 0.533503,-0.0853 c 1.486328,-0.23766 4.330722,-0.39208 5.691722,-0.30898 4.73379,0.28902 7.549817,0.96011 11.072215,2.63863 0.912816,0.43498 1.696811,0.79088 1.742204,0.79088 0.155057,0 -0.482276,-0.52432 -1.358838,-1.11787 -2.04228,-1.38292 -3.436218,-1.87386 -7.81615,-2.75284 -4.992626,-1.00194 -6.718388,-1.68759 -9.11184,-3.62014 -1.29531,-1.04589 -2.203813,-2.04701 -3.294806,-3.6307 -0.640951,-0.93041 -0.696779,-1.06879 -0.467682,-1.1593 0.584092,-0.23075 3.937721,-0.12566 5.365624,0.16814 4.712146,0.96957 10.068421,3.35861 13.344706,5.9521 l 0.500676,0.39633 -0.486694,-0.91613 c -0.6541,-1.23126 -2.138465,-2.72419 -4.600728,-4.62727 -2.579517,-1.99372 -2.964996,-2.23904 -6.455674,-4.10846 -5.762971,-3.08635 -7.186566,-4.33182 -7.846254,-6.86454 -0.47805,-1.83535 -0.251959,-3.24283 0.962737,-5.99333 0.77254,-1.7493 1.101396,-2.68287 1.364397,-3.87328 l 0.08999,-0.4073 0.651811,0.46809 c 1.010809,0.72592 2.559518,2.28956 3.455903,3.48924 1.533773,2.05273 2.318535,4.09413 2.326124,6.05092 0.007,1.80082 -0.534077,2.92964 -1.694566,3.53536 l -0.432708,0.22585 0.837237,0.7793 c 1.203714,1.12042 4.605598,3.32741 7.397694,4.79929 3.113164,1.64115 4.324253,2.51499 6.572862,4.74254 2.408074,2.38553 3.97719,4.40067 5.462961,7.01584 0.468266,0.82422 0.521469,0.87573 0.440612,0.42664 -0.280844,-1.55982 -0.923169,-3.67264 -1.676961,-5.51608 -1.24887,-3.05417 -2.403137,-4.70778 -5.602266,-8.02584 -1.878371,-1.94819 -2.743902,-2.96449 -3.227892,-3.79016 -2.537953,-4.32967 -2.608695,-8.95947 -0.216032,-14.13837 0.58889,-1.27466 1.707346,-3.1006 2.265713,-3.69891 0.187263,-0.20066 0.442724,-0.56183 0.5677,-0.80262 l 0.227228,-0.4378 0.0011,0.83157 c 0.0011,1.08205 0.536167,2.76514 1.63753,5.1516 2.1726,4.70766 2.50406,7.39976 1.190449,9.66877 -0.404363,0.69847 -1.616262,1.49133 -2.282971,1.49358 -0.673205,0.002 -0.774878,0.48403 -0.349489,1.65596 0.654982,1.80446 2.29596,4.22317 5.536593,8.16064 2.700875,3.28165 3.879813,5.37105 4.614026,8.17732 l 0.275091,1.05145 0.08271,-0.65669 c 0.591383,-4.69573 0.982708,-6.10537 2.49144,-8.97476 0.506422,-0.96314 1.335584,-2.5392 1.842586,-3.50234 l 0.92181,-1.75117 -0.57895,0.58845 c -0.880831,0.8953 -2.637502,1.6265 -5.083875,2.1161 -0.826934,0.1655 -3.419104,0.32134 -3.03507,0.18247 0.100829,-0.0365 0.139305,-0.13752 0.08551,-0.22456 -0.06288,-0.10175 -0.0081,-0.12384 0.153464,-0.0618 0.599893,0.2302 2.022463,-0.96414 3.532033,-2.96537 1.488706,-1.97358 2.641815,-2.77276 4.000688,-2.77276 0.87256,0 1.457527,0.44832 1.457527,1.11703 0,0.22682 0.0526,0.3405 0.12133,0.26202 0.16127,-0.18427 0.4624,-1.25968 0.4624,-1.65136 0,-0.21097 0.0914,-0.31142 0.28324,-0.31142 0.50531,0 0.56846,0.23021 0.68805,2.50802 0.13044,2.48443 -0.0852,3.29856 -3.433012,12.96067 -0.978423,2.82383 -1.3931,4.45047 -1.692708,6.63986 -0.496472,3.62805 -0.4139,5.85198 0.301351,8.11615 0.391159,1.23824 0.587947,1.43464 1.171205,1.16888 0.715817,-0.32614 0.889337,-1.10605 0.978137,-4.39634 0.11178,-4.14241 0.45332,-5.70778 1.856837,-8.51061 1.47745,-2.95044 3.42711,-5.2755 5.20053,-6.20184 1.50817,-0.78779 4.06919,-1.28699 4.92256,-0.95952 0.32197,0.12355 0.28949,0.31035 -0.14346,0.82488 -0.57176,0.6795 -1.2772,2.19232 -1.88771,4.04819 -0.62148,1.88923 -1.45753,3.65937 -2.24004,4.74276 -0.28986,0.40131 -1.35256,1.58983 -2.36156,2.64116 -1.99451,2.07816 -2.74244,3.09096 -3.31016,4.48239 -0.5143,1.26052 -0.91281,3.31296 -0.91507,4.71298 -0.002,1.29335 0.13193,2.53777 0.2733,2.53751 0.0493,-9e-5 0.30692,-0.64037 0.57253,-1.42283 0.73242,-2.15764 2.17232,-4.97326 3.78734,-7.40583 3.41258,-5.1401 6.82217,-8.32034 13.26994,-12.37732 0.33672,-0.21186 0.93578,-0.77401 1.33125,-1.24921 0.6933,-0.83309 0.73079,-0.92591 1.04761,-2.5935 0.22684,-1.194 0.36462,-2.65573 0.44497,-4.72107 0.21894,-5.62793 0.58805,-6.70712 3.71839,-10.87186 0.96524,-1.28419 1.8687,-2.57574 2.00769,-2.87011 0.34244,-0.72525 0.44994,-1.67014 0.27618,-2.42744 -0.19067,-0.83095 -0.003,-0.7585 0.89824,0.34677 0.88663,1.08737 1.57075,2.42775 2.25424,4.41666 0.49046,1.42722 0.5343,1.68816 0.53106,3.16088 -0.004,1.85911 -0.33642,3.36258 -1.258,5.69131 -0.95816,2.42116 -2.19951,4.59809 -3.91244,6.86119 -0.4003,0.52887 -0.72781,1.08943 -0.72781,1.24571 0,0.7885 2.13943,-0.10922 3.50349,-1.47009 1.1113,-1.10869 2.03149,-2.54338 2.96449,-4.62201 1.52707,-3.40219 2.15453,-3.96681 5.83006,-5.24618 0.8189,-0.28503 1.76607,-0.68068 2.10482,-0.8792 0.73162,-0.42875 1.46366,-1.22481 1.59029,-1.72933 0.05,-0.19919 0.17126,-0.36215 0.26948,-0.36215 0.25588,0 0.49724,0.88142 0.68577,2.50432 0.36477,3.14006 -0.60685,5.93776 -2.84727,8.19845 -1.24568,1.25695 -2.74047,2.39348 -4.21431,3.20424 -0.4615,0.25388 -0.8391,0.50237 -0.8391,0.55221 0,0.0499 0.50893,0.13019 1.13096,0.17857 2.10328,0.16357 5.2717,1.33601 7.5514,2.79432 0.71698,0.45865 0.88277,0.51417 1.01266,0.33917 0.39884,-0.53738 1.64584,-1.30433 2.58408,-1.5893 2.50339,-0.76039 5.60355,0.13957 8.02297,2.32902 1.83542,1.66096 3.28079,4.33553 3.69885,6.8445 0.0854,0.51266 0.0632,0.62021 -0.12838,0.62021 -0.12745,0 -0.23172,-0.0705 -0.23172,-0.15676 0,-0.0862 -0.3776,-0.55511 -0.83911,-1.04196 -0.9735,-1.02699 -1.99619,-1.57047 -2.95911,-1.57255 -0.90904,-0.002 -1.30937,0.30503 -1.30937,1.00405 0,0.71899 -0.0961,0.79132 -0.57781,0.43513 -0.56779,-0.41977 -1.36534,-0.4847 -3.55659,-0.28951 -1.58731,0.14139 -2.06762,0.13568 -2.76007,-0.0328 -1.54517,-0.37601 -2.34336,-1.21494 -2.90279,-3.05096 -0.16492,-0.54128 -0.44309,-1.19797 -0.61815,-1.45931 -0.72731,-1.08579 -2.76597,-1.96965 -5.49046,-2.38036 -2.17592,-0.32802 -3.73333,-0.23797 -5.69191,0.32911 -0.92978,0.2692 -0.93838,0.26294 1.1593,0.8428 3.79712,1.04964 7.84107,3.89715 10.45927,7.36479 1.60261,2.12256 3.20537,5.70905 3.77415,8.44541 0.23042,1.10855 0.28267,4.51959 0.082,5.35342 l -0.10537,0.4378 -0.16923,-0.41081 c -0.0931,-0.22595 -0.16924,-0.47924 -0.16924,-0.56287 0,-0.0836 -0.19738,-0.56562 -0.43862,-1.07109 -0.52678,-1.10377 -1.66562,-2.20475 -2.88135,-2.78556 -3.44885,-1.64768 -4.64401,-2.84733 -6.67316,-6.69822 -0.90951,-1.72608 -1.49271,-2.50391 -2.71105,-3.61587 -1.69694,-1.54877 -4.508,-3.04989 -6.92354,-3.69721 -1.56524,-0.41946 -3.8523,-0.3584 -5.54537,0.14806 -2.71184,0.8112 -5.16114,2.2814 -7.6974,4.6204 -2.06531,1.90467 -5.75777,6.67417 -7.33322,9.47221 -0.55824,0.99145 -1.38662,2.84627 -1.38662,3.10477 0,0.0833 0.57651,-0.4043 1.28112,-1.08355 4.23972,-4.0871 8.4007,-5.16376 12.29748,-3.18199 1.15432,0.58704 2.25142,1.40814 3.08614,2.30973 0.81149,0.87651 1.82525,2.44939 1.67533,2.59932 -0.0432,0.0432 -0.39502,0.0113 -0.7818,-0.0709 -0.77972,-0.16574 -1.81575,-0.0281 -2.51652,0.33425 -0.87923,0.45468 -1.13647,1.32662 -0.59459,2.01551 0.42078,0.53493 0.35883,0.66116 -0.10944,0.22304 -0.92771,-0.86798 -1.90026,-1.06678 -3.09969,-0.63361 -1.127,0.407 -2.04158,0.32846 -3.32355,-0.28542 -1.34847,-0.64571 -2.33983,-0.7071 -3.82841,-0.23705 -2.62828,0.82994 -6.02755,4.03815 -7.01632,6.62198 -0.2692,0.70345 -0.37153,0.82226 -0.76964,0.89353 -0.717447,0.12844 -3.05719,0.22947 -3.344564,0.14442 z m 40.297857,-6.40941 c -0.41902,-0.89142 -0.99948,-1.29905 -2.39093,-1.67903 -2.24081,-0.61191 -2.81706,-1.07384 -4.79509,-3.84381 -2.36425,-3.31082 -3.89862,-4.86872 -5.94926,-6.04047 -0.89039,-0.50878 -2.68124,-1.12936 -3.57238,-1.23793 l -0.60116,-0.0732 0.41713,0.82266 c 0.74185,1.4631 1.15087,3.77359 0.90282,5.09994 l -0.11764,0.629 -0.61321,-0.93306 c -1.98852,-3.02578 -5.92086,-5.09365 -9.27362,-4.87664 -0.62202,0.0403 -1.13096,0.0245 -1.13096,-0.035 0,-0.18137 1.9256,-1.96781 2.66187,-2.4695 4.86136,-3.31252 12.20563,-3.28397 17.58421,0.0683 1.54675,0.96404 3.86662,3.30405 4.82866,4.87056 1.36228,2.21824 2.20512,4.97437 2.2112,7.23068 0.002,0.6453 0.10166,1.55145 0.22205,2.01367 0.2581,0.99093 0.26648,1.11802 0.0737,1.11802 -0.0798,0 -0.28568,-0.29889 -0.4574,-0.66422 z m -34.08708,-26.22357 c -0.47084,-0.5139 -0.8765,-1.42702 -1.04934,-2.36202 -0.19373,-1.04796 -0.0219,-2.29099 0.51084,-3.69603 0.90125,-2.37684 1.05748,-2.87803 0.94175,-3.02116 -0.1263,-0.15622 0.0223,-1.46963 0.18464,-1.63198 0.11768,-0.11768 1.07316,0.58239 1.60028,1.17253 1.75665,1.96659 1.67041,4.23536 -0.27243,7.16728 -0.53186,0.80263 -1.08907,1.73841 -1.23824,2.07953 -0.14919,0.34111 -0.29496,0.6202 -0.32396,0.6202 -0.029,0 -0.18808,-0.14775 -0.35354,-0.32835 z m 7.77898,-3.68124 c -1.65811,-0.68167 -2.48286,-1.64982 -3.3842,-3.97263 -0.61447,-1.58352 -1.36225,-2.71099 -2.2039,-3.32293 -0.33456,-0.24327 -0.59093,-0.50796 -0.56969,-0.58822 0.0648,-0.24483 1.18459,-0.40732 2.05641,-0.2984 1.38497,0.17304 2.43404,0.83368 3.83399,2.41439 2.34743,2.65057 3.18172,3.44973 4.03937,3.86934 0.45577,0.22299 1.02162,0.41223 1.25743,0.42053 0.23582,0.008 0.42891,0.0567 0.42909,0.10757 1.8e-4,0.0508 -0.25375,0.32201 -0.5643,0.60257 -1.24093,1.12111 -3.26312,1.43834 -4.8942,0.76778 z m 3.31233,-5.68145 c -1.71129,-0.45535 -3.06606,-1.10234 -3.8616,-1.84417 -0.78029,-0.72761 -0.70862,-0.89483 0.68524,-1.59858 0.99391,-0.50182 1.0423,-0.51058 2.76593,-0.50096 2.04328,0.0114 3.06507,0.3165 4.05823,1.21176 0.63485,0.57227 1.26767,1.75483 1.26996,2.37321 0.002,0.48342 -0.21304,0.5488 -2.11457,0.64359 -1.23815,0.0617 -1.66297,0.0185 -2.80319,-0.28485 z M 89.610502,182.0494 c -1.028895,-0.26831 -1.752573,-0.69263 -1.827192,-1.07136 -0.03304,-0.16771 0.142101,-0.23848 0.729657,-0.29485 0.596865,-0.0573 1.322099,-0.3565 3.180994,-1.3125 1.324321,-0.68109 2.765384,-1.35541 3.202361,-1.4985 1.171227,-0.38351 2.618026,-0.34105 3.479211,0.10212 0.76974,0.3961 1.3558,1.13809 1.24216,1.57265 -0.25667,0.98151 -3.815732,2.3533 -6.829247,2.63226 -1.911276,0.17691 -2.018503,0.17253 -3.177944,-0.12982 z m 12.734148,-1.01738 c -0.97464,-0.51865 -1.48873,-2.66931 -0.90957,-3.80511 0.48681,-0.95467 1.32838,-1.31114 2.41379,-1.0224 1.39078,0.36997 2.25723,1.58636 2.09652,2.94327 -0.10138,0.85605 -0.50146,1.55095 -1.09359,1.89945 -0.58478,0.34417 -1.84618,0.33652 -2.50715,-0.0152 z m 5.14724,-0.59279 c -1.07574,-0.27477 -1.25024,-0.97113 -0.56988,-2.27414 0.54153,-1.03712 2.61607,-3.19868 3.63451,-3.78695 1.87888,-1.08528 4.17127,-1.4304 5.21606,-0.78526 l 0.51076,0.31538 -0.45307,0.12055 c -0.59242,0.15761 -1.57106,1.22224 -2.46076,2.67697 -0.78694,1.28671 -1.56981,2.34063 -2.03635,2.7414 -0.97217,0.83511 -2.7043,1.28246 -3.84127,0.99205 z m -10.653792,-3.58066 c -2.082345,-0.47354 -3.980295,-1.86301 -4.781405,-3.50042 -0.727754,-1.48747 -0.628469,-3.56726 0.191234,-4.00596 0.247166,-0.13227 0.298493,-0.0986 0.371347,0.24364 0.125517,0.58964 1.11786,1.80585 1.778948,2.18028 0.489396,0.27719 0.798921,0.32842 1.99654,0.33044 1.063962,0.002 1.615386,0.0765 2.211631,0.29958 1.980667,0.74107 3.477487,2.79864 2.711087,3.72677 -0.62474,0.75657 -2.796409,1.10839 -4.479382,0.72567 z m 9.041172,-0.38223 c -0.43511,-0.16995 -0.79473,-1.04013 -0.80981,-1.95952 -0.009,-0.53578 0.11396,-0.99863 0.46197,-1.74194 0.65557,-1.40023 1.34469,-2.25631 2.84379,-3.5328 1.31892,-1.12305 1.79895,-1.71991 1.94885,-2.42312 0.12344,-0.57911 0.3093,-0.49654 0.65697,0.29186 0.64968,1.47325 0.47707,3.75314 -0.43674,5.76849 -0.93134,2.05402 -3.51503,4.04621 -4.66503,3.59703 z m 37.03647,-0.88828 c 0,-0.37928 -1.16066,-1.57364 -1.88685,-1.94163 -0.44537,-0.22569 -1.26273,-0.42662 -2.3529,-0.57842 -4.22762,-0.58866 -6.68789,-2.05785 -10.10319,-6.03329 -0.57035,-0.66388 -1.36739,-1.41907 -1.7712,-1.6782 -0.63923,-0.41019 -0.85737,-0.47045 -1.6861,-0.46575 -1.13691,0.006 -1.87805,0.34565 -2.95381,1.3519 -1.03723,0.9702 -1.09684,1.13358 -0.52208,1.4308 1.13091,0.58482 3.32046,3.1311 3.12668,3.63609 -0.11438,0.29807 -1.23521,0.55047 -2.02858,0.45681 -0.46533,-0.0549 -1.29334,-0.39894 -2.49657,-1.03725 -1.89067,-1.00299 -2.19374,-1.0832 -2.83409,-0.75003 -0.7202,0.37473 -1.0839,0.8896 -1.54145,2.18216 -0.089,0.25153 -0.12138,0.25456 -0.44608,0.0418 -0.43147,-0.28271 -1.88365,-0.52413 -2.54491,-0.42308 -0.42725,0.0653 -0.47981,0.0397 -0.40985,-0.19937 0.0441,-0.15085 0.23185,-0.76679 0.41714,-1.36875 0.29033,-0.94323 0.33689,-1.40708 0.33689,-3.35641 0,-1.96414 -0.0451,-2.40603 -0.34211,-3.35642 -0.52318,-1.67375 -1.10457,-2.95411 -2.2853,-5.03276 -1.85844,-3.27176 -2.55314,-5.52757 -2.55314,-8.29043 0,-1.80034 0.3447,-3.33825 1.086,-4.84521 0.85331,-1.73468 0.8654,-1.74033 1.22071,-0.57065 0.31571,1.03929 1.18587,2.54178 2.35885,4.07299 2.51267,3.27999 3.70039,6.24726 4.09254,10.22429 0.21947,2.22575 -0.16955,5.74371 -0.82114,7.42585 -0.0998,0.25767 -0.0631,0.25153 0.39085,-0.0655 1.97594,-1.37963 4.24327,-4.68209 5.25999,-7.66136 0.2899,-0.84951 0.34776,-1.3041 0.34361,-2.69973 -0.004,-1.43972 -0.0598,-1.8303 -0.39098,-2.74855 -0.58859,-1.63214 -1.19381,-2.51335 -3.14441,-4.57824 -2.44643,-2.58977 -3.47084,-4.40494 -4.03558,-7.1507 -0.28707,-1.39575 -0.29013,-2.40176 -0.0109,-3.58606 0.27746,-1.17683 0.67269,-1.94214 1.42376,-2.75697 l 0.60195,-0.65303 0.23672,0.86479 c 0.44759,1.63511 1.52089,3.02162 3.78952,4.89539 1.5968,1.31888 2.36998,2.1126 2.823,2.898 1.19413,2.07029 1.12804,4.65251 -0.15334,5.99059 -0.34955,0.36502 -0.36269,0.42064 -0.15511,0.65669 0.5525,0.62827 1.39368,2.83584 1.72559,4.52851 0.10603,0.54076 0.15061,1.50922 0.10912,2.3708 -0.0837,1.73715 -0.0641,1.73395 1.20868,-0.19808 1.69825,-2.57784 2.76974,-5.15557 3.13324,-7.53782 0.29644,-1.94277 0.26398,-2.68675 -0.16874,-3.86718 -1.29432,-3.53074 -1.26941,-3.43477 -1.26885,-4.88868 5.5e-4,-1.67557 0.35302,-2.83515 1.52997,-5.03462 1.18016,-2.20548 1.58427,-3.19152 1.77513,-4.33148 l 0.17364,-1.03702 0.52953,0.79755 c 0.29125,0.43864 0.97072,1.31821 1.50994,1.95459 1.08185,1.27679 2.08404,3.18418 2.48651,4.73236 0.28549,1.09819 0.32242,3.2244 0.0748,4.30496 -0.25123,1.09621 -1.03663,2.53323 -2.21061,4.04468 -1.61363,2.07749 -2.36002,3.91405 -2.56206,6.3042 -0.063,0.74578 -0.0428,1.1067 0.0623,1.1067 0.14053,0 2.4077,-2.36793 3.49303,-3.64827 0.92723,-1.09383 3.25356,-4.21971 4.01836,-5.39944 1.70909,-2.63636 2.22529,-4.06851 2.12029,-5.88248 -0.0629,-1.08639 -0.13242,-1.29283 -1.03629,-3.07695 -1.97498,-3.89836 -1.95644,-4.23373 0.42988,-7.77922 2.21442,-3.29007 2.68214,-4.3508 2.68214,-6.08269 v -0.87872 l 0.59064,0.57675 c 2.39515,2.33879 4.66288,7.76485 4.66288,11.15697 0,4.38079 -3.37104,11.35115 -8.06329,16.67261 -0.4777,0.54177 -0.84538,0.98487 -0.81705,0.98468 0.0284,-2e-4 0.63367,-0.29272 1.34519,-0.65006 1.91856,-0.96354 3.54412,-1.2987 5.89062,-1.21454 2.27993,0.0818 3.77528,0.52804 5.3914,1.60897 0.8813,0.58945 2.37714,2.13483 2.38115,2.46001 5.5e-4,0.0484 -0.31568,0.0576 -0.70284,0.0204 -0.91823,-0.0882 -1.55805,0.23826 -3.12729,1.59581 -2.47054,2.13727 -3.16804,2.17635 -7.18658,0.40264 -2.6321,-1.16176 -3.58251,-1.24244 -5.26347,-0.4468 -0.98557,0.46649 -2.34618,1.64834 -3.01234,2.61657 l -0.452,0.65696 0.9352,-0.0958 c 1.77614,-0.18197 4.26846,0.28941 6.10145,1.15399 4.22417,1.99243 6.51885,5.75367 6.49395,10.64437 -0.008,1.58424 -0.38323,3.35641 -0.71055,3.35641 -0.0703,0 -0.19154,-0.19701 -0.26947,-0.4378 -0.38684,-1.19523 -1.49404,-2.16873 -3.8984,-3.42765 -1.89543,-0.99245 -3.4092,-2.43373 -4.86334,-4.63047 -1.11611,-1.68609 -1.93431,-2.46541 -3.30306,-3.14613 -0.85523,-0.42534 -1.07115,-0.47016 -2.26193,-0.46949 -1.06036,5.5e-4 -1.45709,0.0654 -2.03945,0.33334 -1.03838,0.47767 -2.18199,1.38459 -2.70557,2.14558 l -0.45262,0.65786 h 1.2313 c 6.06008,0 12.54921,4.36667 14.18879,9.54792 0.39397,1.24498 0.51369,2.9013 0.2302,3.18479 -0.12616,0.12617 -0.16758,0.11135 -0.16758,-0.06 z m -41.13912,-1.45999 c -0.90813,-0.62248 -1.1079,-1.03464 -1.1079,-2.28571 0,-1.0593 0.0448,-1.21428 0.83025,-2.87092 0.89166,-1.88068 1.10168,-2.53008 1.26899,-3.9238 l 0.10708,-0.89192 0.68279,0.69395 c 1.2361,1.25632 1.99474,3.15775 1.99784,5.00735 0.002,1.2666 -0.28988,2.29541 -0.91169,3.21201 -0.88858,1.30986 -1.93669,1.69697 -2.86736,1.05904 z m -2.859077,-3.45075 c -2.578648,-3.42227 -5.696803,-5.68457 -10.454795,-7.58521 -3.289009,-1.31384 -4.811751,-1.70019 -6.692096,-1.69794 -2.78765,0.003 -4.025125,0.51558 -5.490875,2.27293 -2.620707,3.14206 -5.805518,4.23081 -9.577239,3.27403 -4.054903,-1.02861 -6.814485,-3.19583 -7.700765,-6.04775 -0.348089,-1.1201 -0.36057,-1.61023 -0.0592,-2.32421 l 0.229009,-0.54255 0.193803,0.4554 c 0.141341,0.33212 0.435703,0.57628 1.087426,0.90195 1.712431,0.85571 3.501852,0.76201 6.724439,-0.3521 2.172688,-0.75113 3.446074,-0.92122 4.84475,-0.64712 1.153148,0.22598 2.204833,0.71814 3.310266,1.54911 0.473054,0.3556 0.893743,0.64655 0.934861,0.64655 0.04115,0 0.407017,-0.2236 0.813107,-0.49688 1.470499,-0.98957 3.821211,-1.49759 6.214056,-1.34293 l 1.450665,0.0937 -0.356185,-0.38127 c -0.1959,-0.2097 -0.621013,-0.53707 -0.94469,-0.7275 -1.233647,-0.72578 -1.742176,-0.82311 -4.956869,-0.94878 -3.982424,-0.15569 -5.093445,-0.45664 -6.997148,-1.89536 -1.090558,-0.82418 -2.213928,-2.42929 -2.570604,-3.67294 -0.104712,-0.36512 0.06249,-0.60835 0.179524,-0.26116 0.119333,0.35401 1.783057,0.46945 4.207677,0.29196 4.743883,-0.34728 7.686337,0.1617 10.348537,1.79005 1.577798,0.96507 2.517705,1.71203 3.697322,2.93829 0.622027,0.64663 1.130965,1.08811 1.130965,0.98107 0,-0.47511 -1.030472,-2.06899 -1.907878,-2.951 -1.216268,-1.22265 -2.475898,-1.85212 -5.080059,-2.53863 -2.375046,-0.62611 -3.711089,-1.29427 -4.653671,-2.32732 -0.810426,-0.8882 -1.569337,-2.20396 -1.349561,-2.33978 0.08208,-0.0507 0.149239,-0.0183 0.149239,0.0721 0,0.0972 0.117618,0.12704 0.287622,0.0731 0.15819,-0.0502 0.929798,-0.02 1.714687,0.067 3.889603,0.4315 8.187155,2.36818 10.809037,4.87107 1.369053,1.30691 4.697294,5.39373 6.762474,8.30379 0.726232,1.02334 1.343841,1.86062 1.372467,1.86062 0.02863,0 -0.04887,-0.34476 -0.172238,-0.76614 -0.961358,-3.28391 -3.392133,-6.89211 -5.926556,-8.79727 -0.488949,-0.36754 -1.583489,-1.07178 -2.432314,-1.56497 -2.959684,-1.71967 -4.309907,-3.55123 -4.759553,-6.4563 -0.321151,-2.07487 -0.640493,-3.41217 -0.975736,-4.08607 -0.352005,-0.70759 -1.058585,-1.47923 -1.62693,-1.77675 -0.38384,-0.20094 -0.399703,-0.23932 -0.186832,-0.45219 0.202745,-0.20275 0.371183,-0.21108 1.311576,-0.0649 4.478388,0.69624 8.428745,3.96199 10.644074,8.79942 0.346247,0.75607 0.692377,1.52396 0.769186,1.70642 0.09722,0.23093 0.140767,-0.36772 0.143321,-1.97007 0.0072,-4.53414 1.256756,-8.04362 4.129538,-11.59839 0.375386,-0.4645 0.761625,-0.84479 0.858317,-0.84508 0.09669,-3e-4 0.215739,0.24571 0.264549,0.54669 0.16059,0.99029 0.81019,2.71763 1.440587,3.83069 0.91561,1.61662 1.00523,1.90898 0.93984,3.0662 -0.0545,0.96466 -0.14516,1.1978 -1.462177,3.76035 -1.582744,3.07957 -1.937678,4.03274 -2.239982,6.01538 -0.264259,1.73314 -0.267877,3.20014 -0.01208,4.88869 0.175757,1.16007 0.756611,3.42937 0.877786,3.42937 0.02471,0 0.05589,-0.60254 0.06925,-1.33899 0.06556,-3.61472 1.275226,-6.79335 4.516403,-11.86776 1.44824,-2.26738 2.35887,-3.92602 2.36352,-4.30496 0.002,-0.1204 0.0643,-0.3163 0.13954,-0.43533 0.32777,-0.51839 1.17205,2.51228 1.17205,4.20726 0,2.46459 -0.99786,5.43897 -3.88706,11.58637 -1.06559,2.26728 -1.90877,4.71506 -2.40065,6.96913 -0.278487,1.27627 -0.336157,1.98773 -0.345127,4.2582 -0.006,1.49925 -0.0427,2.75764 -0.0819,2.79643 -0.0391,0.0388 -0.39944,-0.36526 -0.80075,-0.89785 z M 68.214884,147.72251 c -0.873827,-0.16607 -2.16837,-0.79139 -3.737051,-1.80517 -1.747559,-1.12938 -2.129254,-1.27992 -3.502343,-1.38129 l -1.16745,-0.0862 1.386343,-1.38814 c 1.069936,-1.07134 1.652798,-1.52538 2.553794,-1.9894 1.613659,-0.83104 2.945415,-1.21447 4.210887,-1.21237 1.411786,0.002 2.299291,0.26448 4.221603,1.2469 1.346389,0.68808 2.989452,1.37813 3.281464,1.37813 0.03673,0 -0.318332,-0.2673 -0.788981,-0.59398 -0.470654,-0.32669 -1.381087,-0.98178 -2.02318,-1.45574 -3.457392,-2.55209 -7.502908,-3.28958 -10.383373,-1.89287 -1.68412,0.81661 -3.725523,2.87142 -3.945525,3.97143 -0.138362,0.69182 -0.431412,0.46458 -0.634399,-0.49193 -0.387728,-1.82708 0.422824,-4.12394 2.080784,-5.8963 1.637271,-1.75024 3.829231,-2.60426 6.457643,-2.51597 l 1.385136,0.0466 -1.128406,-1.14809 c -1.54043,-1.56728 -3.14179,-2.73653 -4.508239,-3.29172 -3.339906,-1.35701 -4.24366,-2.10633 -5.839068,-4.84127 -0.492755,-0.84471 -1.074519,-1.74809 -1.292801,-2.00751 -0.508601,-0.60444 -1.369912,-1.04258 -2.049521,-1.04258 h -0.533537 l 0.997032,-0.68269 c 1.293644,-0.88577 2.212499,-1.2265 3.560758,-1.3204 3.050707,-0.21246 5.807481,1.43511 8.113099,4.84874 0.48789,0.72236 1.596947,2.52826 2.464569,4.01311 1.830755,3.13315 3.477193,5.6644 4.502089,6.92153 0.872475,1.07017 3.034678,3.29363 3.202896,3.29363 0.06638,0 -0.177925,-0.36657 -0.542897,-0.81461 -0.814424,-0.9998 -1.751458,-2.87756 -2.068975,-4.14612 -0.321454,-1.28428 -0.2165,-3.51463 0.22666,-4.81664 0.597323,-1.75496 2.294835,-4.29595 3.536021,-5.29307 0.294467,-0.23656 0.594626,-0.3935 0.667023,-0.34876 0.07647,0.0473 0.05328,0.52783 -0.05533,1.1469 -0.475348,2.70927 -0.140849,7.84111 0.736651,11.30152 1.012265,3.99186 2.299578,6.57672 4.147624,8.32821 l 0.802533,0.7606 -0.425361,0.17741 c -0.281903,0.11756 -1.015983,0.15917 -2.176538,0.12334 -4.036349,-0.12461 -3.875959,-0.16023 -6.931723,1.53939 -2.400407,1.33511 -3.42532,1.62667 -4.799909,1.36544 z m 23.718698,-3.05471 c 0.366825,-0.36682 -0.472624,-3.23675 -1.466644,-5.01423 -1.572878,-2.81257 -3.484071,-4.7247 -7.455872,-7.45951 -2.064033,-1.42121 -3.53826,-2.95129 -4.289295,-4.45181 -0.869541,-1.7373 -0.772341,-2.7563 0.283061,-2.96738 1.183864,-0.23677 3.984299,0.75182 5.800013,2.04748 2.428669,1.73306 3.977179,3.61705 5.364774,6.527 1.547358,3.24501 2.210305,5.77932 2.353084,8.99531 0.07742,1.74379 0.05839,2.00501 -0.16204,2.22545 -0.137369,0.13737 -0.32387,0.24976 -0.414451,0.24976 -0.11422,0 -0.118092,-0.0466 -0.01263,-0.15207 z m 9.981208,-5.95681 c -0.3702,-0.39018 -0.89672,-1.12896 -1.17004,-1.64172 -0.866027,-1.62471 -0.778997,-3.71186 0.23851,-5.71981 0.19897,-0.39266 0.32791,-0.74778 0.28654,-0.78916 -0.13509,-0.13509 -1.964567,0.97531 -3.046153,1.84886 -0.932544,0.75319 -1.562514,1.45728 -2.328777,2.60279 l -0.22362,0.3343 -0.08681,-0.33196 c -0.04776,-0.18258 0.01092,-0.75326 0.130315,-1.26819 0.579828,-2.50016 2.639482,-5.24284 4.662095,-6.20813 1.71761,-0.81973 3.01761,-0.51802 3.71731,0.86272 0.34128,0.67349 0.36767,0.86923 0.35404,2.62676 -0.0146,1.87804 -0.0232,1.92485 -0.77846,4.23394 -0.5498,1.68083 -0.77051,2.59025 -0.7879,3.24649 -0.0133,0.50138 -0.0849,0.91181 -0.15906,0.91207 -0.0742,2.6e-4 -0.4378,-0.31877 -0.80799,-0.70896 z m 17.76018,-2.43715 c -0.92266,-0.22358 -1.71343,-0.58425 -1.71343,-0.78149 0,-0.0695 0.15884,-0.16623 0.35298,-0.21495 0.53277,-0.13372 1.79458,-1.63961 2.13401,-2.54681 0.16313,-0.436 0.43345,-1.43542 0.60071,-2.22094 0.37726,-1.77171 0.91588,-2.76143 1.84529,-3.39073 0.37694,-0.25524 1.02561,-0.80355 1.44148,-1.21846 0.60677,-0.60539 0.81575,-0.94745 1.058,-1.73176 0.36548,-1.18331 0.38289,-2.04709 0.058,-2.87725 -0.62193,-1.58902 -1.7052,-2.57159 -3.27994,-2.97502 -1.25352,-0.32114 -2.45779,-0.10772 -4.68976,0.8311 -2.20946,0.92935 -2.99245,1.11855 -3.59541,0.86879 -0.27622,-0.11441 -0.4492,-0.29164 -0.4492,-0.46022 0,-0.15079 0.0538,-0.27416 0.11966,-0.27416 0.32792,0 1.41402,-1.17372 2.29468,-2.47978 1.12037,-1.66155 1.82162,-2.22518 3.09828,-2.49022 1.45771,-0.30262 3.36553,0.10507 4.90213,1.04755 1.0581,0.64899 2.78708,2.12608 3.39562,2.90093 0.7613,0.96936 1.77745,3.15589 2.04045,4.39059 0.34085,1.60022 0.21146,3.72561 -0.30179,4.95737 -0.5996,1.43899 -0.76302,2.01158 -0.91827,3.2175 -0.25319,1.96671 -1.12692,3.36527 -2.82116,4.51581 -1.62274,1.10198 -3.54469,1.42349 -5.57231,0.93215 z m -10.69399,-1.97039 c -0.68424,-0.19897 -1.64865,-1.11266 -2.41741,-2.29027 -1.72017,-2.63504 -2.01126,-5.38508 -0.8224,-7.76958 0.42639,-0.85521 0.53568,-0.96841 1.1106,-1.15028 1.35803,-0.42962 2.73817,0.22941 5.385,2.57138 0.97507,0.86276 1.77822,1.44199 2.29841,1.6576 0.6088,0.25234 0.79837,0.40336 0.79443,0.63291 -0.013,0.75838 -0.88227,1.53927 -1.71533,1.54094 -0.71496,0.002 -1.45797,-0.45029 -2.46326,-1.49755 -0.99579,-1.03737 -1.65287,-1.42011 -2.43802,-1.42011 -0.50742,0 -0.51939,0.0129 -0.44202,0.47428 0.13365,0.79716 1.19353,2.77805 1.84812,3.45408 0.34037,0.35153 0.84029,0.73205 1.11092,0.84561 l 0.49206,0.20646 -0.10132,0.89553 c -0.13062,1.15458 -0.26588,1.38651 -1.00402,1.72166 -0.6627,0.30088 -0.9595,0.32399 -1.63576,0.12734 z m -15.316948,-5.31511 c -1.093978,-0.24204 -1.510233,-0.40304 -2.251147,-0.87076 -0.562245,-0.35493 -1.145046,-1.03719 -1.005332,-1.17691 0.03657,-0.0366 0.702404,-0.22782 1.479621,-0.42497 2.400308,-0.60889 4.098023,-1.72032 4.009715,-2.62501 -0.08774,-0.8989 -2.100165,-1.79038 -4.182681,-1.85286 -1.053339,-0.0316 -1.051685,-0.0173 -0.150976,-1.30139 0.816394,-1.16386 1.537512,-1.64042 2.598336,-1.71715 1.367216,-0.0989 2.04067,0.35809 3.416203,2.31815 0.714489,1.01811 1.710482,2.01178 2.620389,2.61429 0.30302,0.20066 0.58995,0.51543 0.63761,0.69951 0.2524,0.97475 -1.469157,3.17603 -3.049839,3.89968 -1.412795,0.64681 -2.60405,0.77322 -4.121899,0.43742 z m 9.096158,-2.80511 c -0.59904,-0.37164 -0.99699,-1.20324 -0.99699,-2.08338 0,-1.39007 0.70687,-2.20162 1.72321,-1.9784 1.4855,0.32628 1.84059,2.96912 0.53673,3.99475 -0.47864,0.37649 -0.74165,0.39045 -1.26295,0.067 z m 10.50842,-1.20634 c -0.44703,-0.13503 -1.46227,-0.8106 -2.57259,-1.71186 -1.30273,-1.05744 -1.84085,-1.2747 -3.16854,-1.27931 l -1.16745,-0.004 -0.0445,-0.61177 c -0.0974,-1.34005 1.06887,-3.66206 2.47369,-4.92511 1.95259,-1.75555 4.3004,-1.93747 4.25483,-0.32968 -0.008,0.26854 -0.2265,0.90955 -0.48643,1.42445 -0.25992,0.5149 -0.47867,1.16844 -0.48611,1.45231 -0.0288,1.09747 1.26924,2.57638 2.56829,2.92617 0.69588,0.18738 1.299,0.0762 2.10728,-0.38847 0.78553,-0.4516 0.83173,-0.44364 0.7183,0.12375 -0.2162,1.08137 -1.70267,2.74219 -2.90333,3.24387 -0.58419,0.24409 -0.72134,0.25254 -1.29348,0.0797 z M 79.482623,122.371 c -0.462541,-0.29957 -0.656857,-2.3454 -0.33596,-3.53712 0.500581,-1.85903 1.889401,-3.62178 3.464364,-4.39714 1.333152,-0.6563 2.229305,-0.62773 4.461081,0.14224 0.93678,0.32319 1.703231,0.52428 1.703231,0.44686 0,-0.2487 -1.391202,-1.4928 -2.2284,-1.99278 -2.640337,-1.57682 -6.100631,-1.7801 -7.618326,-0.44754 -0.279647,0.24553 -0.752248,0.85122 -1.050223,1.34597 -1.238076,2.05567 -2.104666,2.73066 -5.374355,4.18607 -2.052169,0.91347 -3.749735,1.96124 -3.927313,2.42401 -0.17023,0.44361 -0.352131,0.0159 -0.520155,-1.22315 -0.408771,-3.01422 0.696299,-6.04296 2.986511,-8.18535 1.299795,-1.21589 2.167719,-1.52789 4.014751,-1.44322 0.76249,0.0349 1.76191,0.15203 2.220938,0.26018 0.74205,0.17482 0.891724,0.16937 1.349858,-0.0491 0.283403,-0.13514 0.512164,-0.32886 0.508369,-0.43049 -0.0039,-0.10162 -0.348563,-0.4541 -0.766141,-0.78328 -1.831732,-1.44397 -4.038467,-2.39308 -5.564044,-2.39308 -1.16269,0 -2.271091,0.53404 -4.472112,2.15473 -1.876197,1.3815 -3.049836,1.97573 -4.668602,2.36378 -1.950949,0.46769 -3.411796,0.33395 -4.785454,-0.43808 l -0.588531,-0.33078 0.612033,-0.69986 c 0.336622,-0.38493 1.121158,-1.51592 1.743417,-2.51331 0.622259,-0.9974 1.421196,-2.08059 1.775412,-2.40709 1.330284,-1.22622 3.348445,-1.92361 5.566526,-1.92356 1.701069,3e-5 4.529242,0.46705 6.623991,1.09381 0.919406,0.2751 1.690694,0.48114 1.713969,0.45786 0.02328,-0.0233 -0.466297,-0.40608 -1.087932,-0.85069 -1.323765,-0.94678 -2.997008,-1.81002 -4.632591,-2.38998 -1.031896,-0.3659 -1.362302,-0.41305 -2.845657,-0.40611 -1.419773,0.007 -1.86922,0.0697 -2.918616,0.40957 -2.47196,0.80056 -4.627291,2.28889 -5.20242,3.59246 -0.322321,0.73055 -0.483665,0.50764 -0.486655,-0.67236 -0.0022,-0.95233 0.287071,-2.24956 0.713099,-3.19553 0.933538,-2.07285 3.257147,-3.876302 4.99432,-3.876302 h 0.565378 v -0.630693 c 0,-1.050692 -0.412113,-1.989893 -1.229659,-2.80239 -1.092594,-1.08585 -2.422188,-1.381005 -3.669353,-0.814557 -0.746551,0.339076 -1.238622,0.935686 -2.251605,2.729959 -1.396183,2.473011 -2.717995,3.960602 -4.461246,5.020753 -0.315355,0.19178 -0.621619,0.41783 -0.680586,0.50233 -0.05897,0.0845 -0.108219,-0.2873 -0.109449,-0.826231 -0.0011,-0.53892 -0.134501,-1.655292 -0.296161,-2.480824 -0.604664,-3.087745 -0.515897,-4.44994 0.399577,-6.131967 1.286705,-2.364101 4.453365,-3.628386 7.536938,-3.009115 1.263386,0.253724 2.214992,0.904551 3.301359,2.257887 2.024299,2.521763 2.950804,3.405588 4.743635,4.525123 0.812681,0.507484 -1.669945,-2.235214 -2.919857,-3.22572 -2.014217,-1.596196 -3.077391,-2.864684 -4.086827,-4.876058 -1.812251,-3.611026 -1.355148,-7.040095 1.299253,-9.746628 0.576155,-0.587475 1.127413,-1.068137 1.22501,-1.068137 0.112125,0 0.177456,0.233739 0.177456,0.634914 0,0.918633 0.222054,1.457844 1.24096,3.013361 1.742391,2.660045 2.124709,3.666551 2.993268,7.880273 0.697193,3.382356 1.132085,4.806292 1.912859,6.263165 0.574914,1.072742 1.423788,2.267009 1.533436,2.157359 0.03133,-0.03131 -0.04859,-0.346268 -0.177571,-0.699902 -0.134716,-0.369357 -0.266603,-1.326071 -0.309922,-2.24821 -0.142107,-3.024703 0.802158,-5.564288 2.818675,-7.580806 1.689034,-1.689031 3.537604,-1.842592 4.732383,-0.39312 0.557099,0.675859 0.567457,0.937783 0.03144,0.794748 -1.313423,-0.350472 -2.625236,0.443117 -3.840466,2.323318 -1.387022,2.145995 -1.592921,4.764891 -0.584213,7.430932 0.805296,2.128439 2.972183,4.524818 5.581451,6.172568 0.385086,0.24319 0.382417,0.2305 -0.187919,-0.89406 -0.801281,-1.579932 -1.102047,-3.121241 -0.892491,-4.573625 0.25764,-1.785568 0.681021,-2.712913 1.707743,-3.740482 1.024714,-1.02556 2.020157,-1.43949 3.08044,-1.280924 1.044466,0.156201 1.063792,0.247556 0.242495,1.146187 -0.822328,0.899759 -1.256735,1.874911 -1.492406,3.350157 -0.268809,1.682688 0.311212,4.373867 1.419182,6.584687 0.517371,1.03236 2.293848,3.80154 2.533943,3.94992 0.07155,0.0442 0.1301,-0.30556 0.1301,-0.7773 0,-1.20208 0.297533,-2.11828 1.503614,-4.63008 1.380436,-2.874917 1.394721,-3.199634 0.24732,-5.62019 -0.741085,-1.563393 -0.795743,-1.753086 -0.798948,-2.772689 -0.0033,-0.973534 0.05657,-1.215431 0.539582,-2.188965 0.298659,-0.601965 0.816195,-1.554164 1.150081,-2.115999 0.333887,-0.561834 0.7298,-1.364638 0.879811,-1.784009 0.299734,-0.837935 0.360708,-2.22985 0.117585,-2.684127 -0.08534,-0.159454 -0.134584,-0.394678 -0.109444,-0.52272 0.101629,-0.517592 1.777751,1.346767 2.715794,3.020788 0.710695,1.268298 1.070289,2.761506 1.061878,4.409399 -0.01109,2.172593 -0.325575,3.234091 -2.079482,7.019083 -3.202896,6.911949 -3.542541,8.122779 -2.965277,10.571139 0.461333,1.95665 1.727576,3.98118 3.937086,6.29483 0.837275,0.87673 1.563672,1.75882 1.614211,1.96019 0.151378,0.60314 -0.297368,1.32574 -1.091832,1.75814 -0.91447,0.49772 -1.143325,0.48476 -2.03495,-0.11526 -0.792842,-0.53354 -2.657181,-1.30657 -3.555105,-1.47409 -0.813614,-0.15178 -1.178751,-0.002 -2.181386,0.8922 -0.606104,0.54081 -1.408599,1.04725 -2.401919,1.51579 -1.59511,0.75242 -2.714961,1.64949 -3.40457,2.72728 -0.214045,0.33453 -0.456893,0.56437 -0.539664,0.51076 z m 20.782517,-0.76701 c -0.927817,-0.21859 -1.74761,-0.72173 -2.607019,-1.60002 -0.937393,-0.95799 -1.535444,-2.1021 -1.757366,-3.36194 -0.149448,-0.84845 -0.06528,-2.10267 0.150055,-2.23575 0.146916,-0.0908 0.376449,0.0885 0.428979,0.33508 0.07948,0.37308 0.908861,1.46382 1.383757,1.81981 0.885557,0.66384 2.440344,1.29472 2.440344,0.9902 0,-0.072 -0.0985,-0.36664 -0.2189,-0.65478 -0.319517,-0.76473 -0.281737,-2.39737 0.0777,-3.3581 0.54083,-1.44549 1.88766,-2.86648 2.71688,-2.86648 0.40511,0 0.40403,-0.005 0.12493,0.53056 -0.11989,0.2299 -0.21839,0.76537 -0.21889,1.18995 -0.001,0.87376 0.27866,1.51653 1.25936,2.89429 1.12121,1.57516 1.43957,2.42692 1.43871,3.8492 -5.6e-4,0.91012 -0.0723,1.3847 -0.26946,1.78229 -0.37749,0.76125 -0.69443,0.81228 -1.56702,0.25235 -0.62915,-0.40373 -0.78154,-0.44664 -1.08887,-0.30661 -0.24164,0.1101 -0.35734,0.28196 -0.35734,0.53077 0,0.34374 -0.0456,0.36699 -0.69318,0.3533 -0.38124,-0.008 -0.94045,-0.0729 -1.24268,-0.14412 z m 5.67271,-3.28253 c -0.18196,-0.47419 -0.0789,-2.09507 0.2033,-3.1986 0.56546,-2.21095 1.48144,-3.71176 3.4508,-5.65407 1.4993,-1.47871 2.98933,-2.61301 6.56536,-4.99797 3.42747,-2.28588 4.8342,-3.37257 6.2898,-4.858841 1.51444,-1.54635 2.41132,-2.79647 3.31997,-4.627546 0.99496,-2.005027 1.43079,-3.554034 1.36422,-4.848619 -0.0278,-0.540986 0.0118,-0.961657 0.0914,-0.971413 0.22395,-0.02742 1.2114,1.481136 1.55494,2.375522 0.38406,0.999889 0.4322,2.743288 0.0974,3.525813 l -0.22212,0.519097 0.87545,-0.140986 c 1.75332,-0.282365 3.98493,0.362765 4.86249,1.405682 0.19401,0.230575 0.35275,0.545527 0.35275,0.699893 0,0.245284 -0.10876,0.280666 -0.86275,0.280666 -1.83606,0 -4.70984,0.839916 -6.53246,1.909231 -0.56487,0.331411 -1.90207,1.554171 -3.9874,3.646161 -3.35546,3.36616 -3.57819,3.53889 -8.82883,6.84685 -2.73823,1.72512 -4.06039,2.70212 -5.33467,3.94203 -1.21822,1.18537 -2.19059,2.56916 -2.58437,3.67788 -0.25168,0.70863 -0.51357,0.8906 -0.67527,0.46922 z m -7.305747,-4.65786 c -0.160153,-1.36088 -0.805765,-3.50978 -1.305955,-4.34682 -0.897405,-1.50177 -2.76004,-2.13823 -4.163012,-1.42249 -0.68336,0.34863 -1.60564,1.39029 -1.71643,1.93862 -0.122052,0.60404 -0.287054,0.48595 -0.4873,-0.34876 -0.216323,-0.90174 -0.111281,-2.38885 0.240432,-3.40383 0.468762,-1.35277 2.088886,-2.55892 3.437172,-2.55892 0.563707,0 1.786063,0.48302 2.392057,0.94523 0.276172,0.21065 0.502131,0.3505 0.502131,0.31079 0,-0.0397 -0.219021,-0.61766 -0.486715,-1.28432 -0.56412,-1.40489 -0.99824,-2.97557 -1.363515,-4.933358 -0.368551,-1.975334 -0.369544,-8.190353 -0.0017,-10.288134 0.758018,-4.322259 2.332853,-8.864716 4.300415,-12.404133 0.952027,-1.712594 2.065017,-3.407766 2.785707,-4.242883 0.65489,-0.758855 0.96787,-0.712677 1.96996,0.290642 1.30463,1.306239 2.12895,3.315875 1.92312,4.688443 -0.15385,1.025964 -1.12722,2.781343 -2.42396,4.371383 -3.95796,4.853198 -5.460287,7.667187 -6.349631,11.893374 -0.32707,1.554236 -0.371844,5.167383 -0.08183,6.603377 0.109417,0.541769 0.240752,0.984909 0.291864,0.984759 0.05113,-1.5e-4 0.109588,-0.476251 0.129956,-1.058001 0.142548,-4.071576 2.420521,-8.565319 6.592231,-13.004469 1.12122,-1.193097 3.93436,-3.610717 6.10781,-5.249071 2.33397,-1.75936 3.88563,-3.154919 4.21415,-3.790202 0.12272,-0.237312 0.19549,-0.619797 0.16171,-0.849966 -0.10597,-0.721964 0.16084,-0.455948 0.41314,0.411912 0.36529,1.256567 0.21993,3.125825 -0.36763,4.727541 -1.29777,3.537745 -3.42866,6.103236 -8.54852,10.292039 -1.28419,1.050659 -2.6093,2.208989 -2.94468,2.574066 -2.33249,2.539025 -4.132697,6.486761 -4.133157,9.063781 -2.2e-4,1.27167 0.290247,3.44954 0.460087,3.44954 0.0681,0 0.12382,-0.10038 0.12382,-0.22306 0,-0.37621 0.8707,-1.98541 1.63569,-3.02306 1.01875,-1.38185 2.46242,-2.65493 3.70969,-3.27137 1.34366,-0.664071 2.60128,-0.740551 3.45915,-0.21036 0.9354,0.57812 1.27554,1.3284 0.60221,1.3284 -0.20385,0 -0.62689,0.13074 -0.9401,0.29052 -0.99199,0.50607 -1.6491,1.61556 -2.23821,3.77905 -0.56523,2.07578 -1.24729,2.83713 -3.27947,3.66073 -2.10833,0.85445 -2.29257,0.95084 -2.93459,1.5353 -0.726067,0.66099 -1.319187,1.79471 -1.336577,2.55481 -0.006,0.28092 -0.0645,0.6421 -0.12911,0.80262 -0.0874,0.21732 -0.14374,0.0682 -0.22047,-0.58372 z m 24.844917,-2.24184 c -0.6823,-1.48196 -0.77245,-1.91597 -0.76198,-3.66837 0.008,-1.37985 0.0686,-1.82778 0.33933,-2.51958 0.41486,-1.06002 0.90448,-1.64628 1.55389,-1.86061 0.99231,-0.32749 2.29822,0.66591 3.16828,2.41013 1.02243,2.04963 1.5956,4.59907 1.28774,5.72779 -0.093,0.34111 -0.22198,0.6202 -0.28653,0.6202 -0.0645,0 -0.27544,-0.31154 -0.46865,-0.69232 -0.5401,-1.06442 -1.25298,-1.7885 -1.76086,-1.7885 -0.50052,0 -1.68879,1.02549 -2.30607,1.99016 l -0.38636,0.60382 z m 11.37045,-3.75907 c -0.0599,-0.0599 -0.55106,-0.11969 -1.09144,-0.13283 -1.81458,-0.0441 -4.32849,-1.24902 -5.64405,-2.70519 -0.5968,-0.66058 -1.18597,-1.76818 -1.31855,-2.47878 -0.0891,-0.47778 -0.0481,-0.54139 0.82716,-1.28308 1.81388,-1.537011 4.64802,-2.572263 6.07066,-2.21749 0.95052,0.23704 1.78256,0.751949 2.41413,1.494 0.29412,0.34556 0.63456,0.74438 0.75655,0.88628 0.20308,0.23621 0.1877,0.27109 -0.18212,0.41307 -0.22216,0.0853 -1.24889,0.31756 -2.28162,0.51615 -2.0295,0.39028 -3.011,0.71289 -3.011,0.9897 0,0.28246 0.30338,0.57671 1.34591,1.30544 1.09164,0.76306 1.56244,1.30796 2.01599,2.33331 0.28793,0.65091 0.3406,1.12163 0.0984,0.87942 z m -20.86496,-4.33214 c -1.01921,-0.35482 -3.24281,-1.7582 -3.39512,-2.14277 -0.27288,-0.68901 1.90595,-1.273261 3.27938,-0.87936 0.27507,0.0789 0.52265,0.12092 0.55016,0.0934 0.0275,-0.0275 -0.1817,-0.39439 -0.46494,-0.815281 -0.70665,-1.050073 -0.99507,-2.121038 -0.92814,-3.446358 0.0715,-1.416149 0.24668,-1.572988 0.79087,-0.708132 0.23986,0.381199 0.98238,1.120989 1.70151,1.695274 0.70175,0.560411 1.49243,1.271866 1.75705,1.581012 1.01779,1.189064 1.52023,2.841195 1.14145,3.753375 -0.47598,1.14627 -2.49717,1.54248 -4.43222,0.86884 z m 4.74756,-3.90429 c -1.50399,-0.982708 -2.42758,-2.27324 -2.88575,-4.032242 -0.43711,-1.678205 -0.18885,-4.063117 0.58113,-5.582602 0.35905,-0.708545 0.6082,-0.984062 0.75614,-0.836128 0.0419,0.04192 0.13835,0.352772 0.2143,0.690787 0.33861,1.507042 1.98981,4.00498 2.64739,4.00498 0.2358,0 0.75508,-1.599448 0.98397,-3.030738 0.0997,-0.6235 0.24943,-1.175751 0.33271,-1.227225 0.2449,-0.151351 0.92086,0.728398 1.26892,1.65146 0.66929,1.775006 0.52371,4.312383 -0.3523,6.140315 -0.61464,1.282527 -1.87462,2.814183 -2.31503,2.814183 -0.17833,0 -0.73249,-0.266751 -1.23148,-0.59279 z M 80.205347,84.101955 c -0.779544,-0.405226 -0.943046,-0.562451 -1.15092,-1.10677 -0.357167,-0.935227 -0.212402,-2.295509 0.37025,-3.479043 0.679543,-1.380344 1.577136,-2.017105 3.604943,-2.557378 2.128664,-0.567141 3.399425,-1.594961 3.640954,-2.944879 l 0.112224,-0.627236 0.182436,0.583723 c 0.298074,0.953729 0.25068,3.495238 -0.09005,4.828862 -0.62152,2.432634 -2.12429,4.697223 -3.572253,5.383192 -0.321046,0.152095 -0.944905,0.302483 -1.386343,0.334194 -0.685439,0.04924 -0.935281,-0.0113 -1.711241,-0.414665 z"
       id="path1" /></g></svg>
