<?xml version="1.0" encoding="UTF-8" standalone="no"?>
<!-- Created with Inkscape (http://www.inkscape.org/) -->

<svg
   version="1.1"
   id="svg1"
   width="400"
   height="918.91559"
   viewBox="0 0 400 918.91559"
   xmlns="http://www.w3.org/2000/svg"
   xmlns:svg="http://www.w3.org/2000/svg">
  <defs
     id="defs1" />
  <g
     id="g1"
     transform="translate(-280,-180.54221)">
    <path
       style="fill:#000000;stroke-width:0.824381"
       d="m 477.27851,1094.0966 c 0,-6.6885 1.94082,-16.1174 4.43307,-21.5368 1.94304,-4.225 7.05587,-11.2594 15.53115,-21.3681 2.62716,-3.1335 4.62354,-5.8504 4.4364,-6.0375 -0.18712,-0.1872 -1.95136,0.8295 -3.92053,2.2591 -4.74478,3.4449 -11.2672,6.3782 -18.83133,8.4691 -5.11581,1.4143 -8.53036,1.7068 -19.78513,1.6952 -14.75671,-0.015 -18.00801,-0.5308 -35.69552,-5.6619 -12.45102,-3.6119 -19.47234,-4.455 -21.36244,-2.5649 -0.72921,0.7292 -1.49367,1.7961 -1.69878,2.371 -0.20511,0.5749 -0.67711,0.7609 -1.04887,0.4134 -1.05205,-0.9833 2.22806,-4.8359 6.93875,-8.1499 2.35412,-1.6563 8.2565,-4.5861 13.1164,-6.511 21.21489,-8.4024 28.63501,-14.15 41.26392,-31.9625 12.1151,-17.0878 24.03139,-29.23629 33.52271,-34.17581 l 2.47314,-1.28719 -2.30155,-0.88308 C 487.04835,966.36398 467.19455,947.6863 455.71504,932.8196 429.01329,898.23908 409.05218,839.6021 402.81547,777.42387 l -1.07494,-10.71694 -1.36363,4.57339 c -0.75019,2.51604 -2.62791,6.03594 -4.17407,7.82459 -2.78207,3.21839 -2.86288,3.24863 -7.99902,2.99408 -6.74718,-0.33438 -21.81472,-4.1637 -30.80426,-7.8287 -10.04326,-4.09459 -20.05831,-11.0723 -29.71144,-20.70059 -26.02827,-25.96132 -37.48857,-52.91696 -37.52473,-88.26158 -0.0174,-17.00904 3.18137,-49.05064 4.89683,-49.05064 0.34371,0 0.85166,1.91441 1.12879,4.25427 1.43557,12.12128 10.74599,30.10159 24.31317,46.95374 12.36561,15.35966 27.51305,30.96599 41.77525,43.04084 20.45314,17.3163 29.37442,26.98866 35.01681,37.96486 l 3.01752,5.87003 -0.3636,-19.02034 c -0.31456,-16.45474 0.12856,-27.56309 1.92138,-48.16667 l 0.39454,-4.53409 -1.29141,5.70081 c -1.62997,7.19526 -3.61042,11.08604 -7.28542,14.31273 -5.68963,4.99557 -14.28774,4.17895 -24.13758,-2.29253 -22.1422,-14.54771 -50.88245,-69.05673 -57.15619,-108.40287 -1.96003,-12.29248 -0.70527,-30.77982 2.99343,-44.10436 3.4472,-12.41853 10.40621,-30.50204 11.73802,-30.5021 0.29069,-2e-5 0.39741,4.42805 0.23715,9.84016 -0.43261,14.60989 2.05799,25.45887 9.38008,40.85927 6.8135,14.33069 16.68942,27.72929 35.8866,48.68714 19.17338,20.93186 23.20649,27.73321 26.71207,45.04666 1.14573,5.65856 2.16641,12.2021 2.26819,14.5412 0.2118,4.86812 1.45937,5.83005 1.5064,1.16151 0.0374,-3.70695 0.29301,-5.71391 2.96696,-23.28875 2.72221,-17.89207 6.86417,-37.90724 11.94187,-57.70665 17.86447,-69.65878 32.68819,-102.62241 63.76437,-141.79344 19.60033,-24.7059 26.24331,-34.93922 28.50084,-43.90468 2.03321,-8.07458 3.1194,-4.23647 3.79295,13.4026 0.78855,20.65088 -2.27263,33.99259 -16.17228,70.48453 -4.45738,11.70237 -8.63347,26.20993 -11.14181,38.70626 -6.00846,29.9336 -6.14506,69.75099 -0.34799,101.43844 1.7239,9.42303 7.02734,30.76027 9.42551,37.9215 9.53604,28.47577 14.57943,41.46248 30.97211,79.75322 17.64534,41.21678 24.18098,60.80932 28.39509,85.12289 2.92175,16.85717 2.44018,38.22197 -1.3422,59.54611 -4.0097,22.60584 -13.01319,48.27137 -21.40568,61.01954 -1.27503,1.9368 -1.45583,2.68617 -0.65239,2.7043 0.72846,0.0165 0.61432,0.31458 -0.33124,0.86535 -2.41418,1.40615 -1.66084,3.18961 3.4666,8.2068 6.18609,6.05309 14.40272,10.0379 30.5391,14.81049 15.05331,4.45222 24.65865,8.59027 33.2433,14.32137 12.81888,8.55788 28.54576,26.07268 23.41127,26.07268 -4.1984,0 -15.88263,2.0708 -21.47662,3.8064 -9.49033,2.9444 -25.2013,10.8952 -33.94904,17.1806 -4.09745,2.944 -12.22695,10.2461 -18.13364,16.2878 -19.31297,19.7547 -23.60126,23.7218 -29.30509,27.1105 -9.84081,5.8463 -18.39157,8.1314 -35.19775,9.4063 l -6.80114,0.5159 z m 3.21535,3.3931 c -0.15123,-1.8964 -1.40102,-5.1686 -1.49567,-3.9159 -0.0514,0.6802 -0.31712,2.0713 -0.59052,3.0915 -0.36544,1.3636 -0.14414,1.8548 0.83564,1.8548 0.733,0 1.29574,-0.4636 1.25055,-1.0304 z m -74.45543,-97.98332 c -17.57757,-2.56357 -32.61608,-11.07629 -51.33108,-29.05635 -28.762,-27.63264 -48.5623,-56.03151 -61.22255,-87.80936 -3.58708,-9.00373 -4.37688,-12.711 -1.95013,-9.1538 7.73716,11.34139 27.85415,26.70159 47.5388,36.29795 16.49742,8.04258 22.63734,9.20575 58.58284,11.09826 28.12178,1.4806 35.35899,2.83421 46.83149,8.75911 5.24384,2.70814 8.54803,5.24815 14.27821,10.976 12.30574,12.30078 18.5125,23.19854 18.5125,32.50414 0,3.49142 -0.33122,4.0539 -5.16436,8.76968 -8.01073,7.81611 -21.54397,14.69252 -33.96599,17.25832 -6.6894,1.38177 -23.77787,1.57127 -32.10973,0.35605 z m 167.0779,-24.63685 c -5.17151,-1.09882 -15.77283,-6.90303 -19.856,-10.87111 -3.57822,-3.47731 -6.8391,-8.97547 -7.87596,-13.27939 -1.06989,-4.44119 0.9262,-8.89642 6.36426,-14.20509 6.35196,-6.20082 12.27042,-9.29857 33.11154,-17.33076 28.97302,-11.1662 42.30598,-18.44896 56.2159,-30.70622 13.79708,-12.15776 31.6812,-37.83282 30.26977,-43.45628 -0.29076,-1.15871 -0.15927,-2.05856 0.30099,-2.05856 1.37325,0 1.53656,2.45407 0.89313,13.42109 -3.24584,55.32102 -32.4271,100.09538 -75.57475,115.95811 -7.54211,2.7728 -17.65311,3.84466 -23.84888,2.52821 z M 392.11798,911.74569 c -25.7475,-4.00622 -47.74579,-14.73345 -70.53339,-34.39486 -12.66868,-10.93071 -26.99804,-29.81811 -34.24744,-45.14128 -5.824,-12.3103 -9.25393,-27.58112 -6.19488,-27.58112 0.7166,0 4.6118,3.01825 8.656,6.70723 12.79933,11.6751 21.38483,17.8001 33.43091,23.85 13.70381,6.88248 21.75506,9.51241 42.90111,14.0136 7.70427,1.63995 17.17353,4.05181 21.04281,5.35972 18.79921,6.35452 33.76772,18.50953 40.53962,32.91969 1.61719,3.44128 2.13474,5.86221 2.14733,10.04453 0.0151,5.00163 -0.21176,5.75253 -2.45656,8.13238 -3.17827,3.36949 -7.76063,5.33631 -15.07782,6.47162 -7.2503,1.12491 -10.97833,1.05454 -20.20769,-0.38151 z m 174.01373,-7.43218 c -1.89525,-0.82052 -4.00473,-2.74545 -5.52667,-5.04316 -6.68494,-10.09243 -3.07681,-23.51859 9.81422,-36.51948 9.01687,-9.09373 20.64502,-17.81781 53.2966,-39.98607 36.64808,-24.88165 50.08235,-40.16015 54.72765,-62.24073 l 1.47416,-7.00723 0.0792,8.34191 c 0.18004,18.96136 -7.4191,46.27574 -19.37995,69.65899 -14.62435,28.59046 -36.06532,51.77583 -60.01357,64.89625 -14.47193,7.92867 -27.50545,10.91543 -34.47165,7.89952 z M 384.27824,846.20354 c -11.04514,-2.17436 -39.65563,-12.94628 -48.51269,-18.26515 -9.11381,-5.47307 -17.51056,-12.2477 -25.21136,-20.34099 -18.91676,-19.88085 -26.44782,-39.15436 -29.507,-75.51446 -1.41455,-16.81277 -1.20626,-17.22935 3.84838,-7.69692 5.66278,10.67928 12.06584,19.05087 22.96515,30.0255 14.7862,14.88835 28.57134,23.14702 58.28725,34.91986 18.11515,7.17684 25.15466,11.25099 31.65886,18.32276 8.75697,9.52105 13.33178,24.94904 9.86114,33.25545 -1.90012,4.5476 -5.46269,6.18391 -13.2397,6.08104 -3.62728,-0.048 -8.19479,-0.40218 -10.15003,-0.78709 z m 183.06519,-10.69493 c -9.68251,-4.93664 -12.50455,-14.92204 -7.24614,-25.63942 6.14227,-12.51882 16.68664,-21.90761 50.31868,-44.80424 15.87641,-10.80862 26.17127,-18.85932 35.31373,-27.61574 15.94715,-15.27366 29.02347,-33.94696 29.68801,-42.39511 0.0685,-0.86927 0.58803,-1.73487 1.15478,-1.92355 2.42187,-0.80631 -0.0503,19.16409 -4.28487,34.61515 -7.48093,27.29576 -20.22668,50.73738 -39.39542,72.45523 -12.55284,14.22219 -30.60876,28.23984 -43.50301,33.77347 -8.30319,3.56337 -16.89335,4.16117 -22.04576,1.53421 z m -21.16656,-41.8209 c -9.13447,-27.50129 -1.36085,-52.68922 24.25664,-78.59588 10.17803,-10.29292 22.5131,-19.66312 47.40189,-36.00828 20.54075,-13.48969 29.57159,-20.41873 37.9937,-29.15116 6.91079,-7.16537 9.77254,-11.3667 11.04159,-16.21015 1.26345,-4.82187 2.90792,-4.09904 2.59845,1.14212 -1.50697,25.52165 -16.64458,64.40376 -34.30627,88.11839 -12.12951,16.2864 -21.17619,24.17958 -48.23051,42.08097 -19.79443,13.09761 -28.32452,20.02616 -33.81085,27.46273 -2.04033,2.76565 -4.1436,5.04336 -4.67393,5.0616 -0.53032,0.0182 -1.55215,-1.73693 -2.27071,-3.90034 z m -20.12639,-48.33693 c -6.89265,-10.86858 -9.43438,-28.96229 -5.98477,-42.60365 3.30488,-13.06902 9.10612,-22.86195 20.65366,-34.86494 11.46958,-11.92192 16.86079,-16.25511 54.10859,-43.4898 32.2564,-23.58508 43.3087,-37.67749 49.13187,-62.64625 1.41069,-6.04882 1.56122,-7.84192 0.76527,-9.11636 -0.84737,-1.35695 -0.77705,-1.55029 0.48648,-1.33633 1.04515,0.17701 1.4007,-0.1959 1.21588,-1.27523 -0.4413,-2.57684 1.55189,-0.62288 3.22662,3.16313 2.63423,5.95504 4.04202,14.81285 4.03922,25.41462 -0.008,32.73036 -13.52644,59.62236 -44.30303,88.13523 -3.79952,3.52005 -12.35702,10.75902 -19.01668,16.08662 -6.65966,5.32759 -13.0359,10.47536 -14.16942,11.43949 -1.13352,0.96412 -6.51841,5.46293 -11.96641,9.99733 -17.32889,14.42294 -24.17299,22.95112 -29.2796,36.4843 -3.63406,9.63072 -5.20801,10.44562 -8.90768,4.61184 z M 510.36836,691.4822 c -3.41446,-8.57551 -4.19253,-12.47032 -4.21638,-21.1062 -0.0166,-5.98438 0.43402,-8.65502 2.50332,-14.83884 7.35418,-21.97693 23.67958,-41.46217 65.07573,-77.6714 21.89456,-19.1512 31.49848,-28.75965 39.90546,-39.92443 11.22189,-14.90299 16.07261,-27.75603 15.05714,-39.89654 l -0.48993,-5.85658 1.56154,2.47314 c 5.07827,8.04297 7.36287,31.5359 4.60969,47.40189 -4.05645,23.37677 -14.95508,43.80823 -33.72854,63.23012 -11.53464,11.93304 -19.32544,18.62754 -37.88688,32.55555 -26.35193,19.77374 -34.70204,27.34751 -41.69302,37.81659 -3.9615,5.9324 -5.86648,11.71931 -5.86648,17.82119 0,6.43394 -1.76301,5.70253 -4.83165,-2.00449 z m -14.42889,-50.6994 c -3.54838,-5.66328 -5.66731,-18.67815 -4.59611,-28.23004 1.45324,-12.95857 5.35184,-23.5343 12.90185,-34.99885 6.13068,-9.30933 26.66346,-29.79295 49.20957,-49.09175 23.65196,-20.24536 35.11584,-30.91672 43.3589,-40.36138 11.8785,-13.61004 17.312,-22.98151 17.312,-29.85902 0,-3.84292 1.41101,-3.41006 2.49416,0.76514 0.49991,1.92699 1.27837,4.80202 1.72996,6.38895 0.4516,1.58693 1.02718,7.52247 1.2792,13.19009 0.38375,8.6313 0.18482,11.44272 -1.22462,17.31198 -5.07587,21.1367 -20.41315,41.01926 -53.34316,69.15157 -30.25167,25.84418 -42.25888,37.64523 -51.68323,50.7958 -3.87848,5.41197 -10.58492,18.10857 -12.73912,24.11764 -1.11729,3.11665 -3.04916,3.45369 -4.6994,0.81987 z M 389.75026,620.87392 c -9.23082,-3.29672 -18.96948,-15.63775 -28.1236,-35.63877 -14.1814,-30.9853 -18.96733,-53.05306 -18.24738,-84.13814 0.57791,-24.95278 5.11288,-42.17534 15.72992,-59.73791 3.79266,-6.27378 6.02,-8.39306 4.84557,-4.61048 -0.31674,1.02018 -0.77752,7.82308 -1.02394,15.11754 -0.3467,10.26305 -0.13581,15.11079 0.93245,21.4339 1.69875,10.05513 7.11184,26.53881 12.84358,39.11079 4.81987,10.57185 5.42505,11.68476 16.12454,29.65239 15.5158,26.05566 21.08467,42.02191 19.92051,57.11318 -1.35968,17.62604 -10.43404,26.18589 -23.00165,21.6975 z m 106.10188,-59.80145 c -4.30338,-8.32183 -2.89128,-26.79521 3.3184,-43.41199 8.45627,-22.62851 21.9265,-35.6515 63.84354,-61.7239 13.74698,-8.55061 17.43753,-11.26518 24.6424,-18.12561 6.52746,-6.21542 14.09555,-16.88297 17.41787,-24.55124 1.12425,-2.59491 2.29733,-4.72433 2.60682,-4.73207 1.7772,-0.0445 3.01945,14.08114 2.17974,24.78506 -1.35727,17.30154 -9.30484,32.56968 -25.00074,48.02919 -9.82118,9.67326 -19.73725,17.23292 -46.3408,35.32855 -20.22554,13.75734 -29.12121,22.17634 -34.23441,32.40001 -2.11019,4.21925 -2.34171,4.86661 -3.9065,10.92305 -1.06805,4.13382 -2.74043,4.53247 -4.52632,1.07895 z m -88.02163,-5.04778 c -6.55894,-3.46278 -12.20225,-12.99783 -18.66293,-31.53324 -9.05138,-25.96803 -12.47422,-51.27662 -10.80404,-79.88516 1.92289,-32.93709 6.11514,-51.83838 16.27899,-73.39591 5.91818,-12.55248 6.94197,-12.67586 5.13034,-0.61829 -1.42791,9.50364 -1.04406,26.21167 0.81135,35.31637 2.50097,12.27244 7.71069,29.76204 12.45028,41.79699 11.87859,30.1625 16.99194,48.89543 18.26409,66.91107 1.02576,14.52633 0.59223,19.0711 -2.63693,27.64391 -4.90328,13.01722 -12.6059,18.10676 -20.83115,13.76426 z m 29.91458,-56.98885 c -13.87223,-33.19675 -16.59748,-41.14475 -20.37508,-59.42259 -2.04411,-9.89041 -2.25411,-12.54745 -2.26251,-28.62652 -0.008,-15.36014 0.24041,-18.87871 1.86263,-26.38017 4.50146,-20.81565 16.41182,-48.80999 23.26069,-54.67237 1.87792,-1.60743 3.1696,-3.3187 2.8704,-3.80282 -0.2992,-0.48411 -0.19681,-0.88021 0.22752,-0.88021 1.80395,0 8.32718,19.31727 10.45184,30.95105 2.96151,16.21606 2.55686,30.61571 -1.69007,60.143 -0.7324,5.09214 -1.60784,19.55049 -1.99662,32.97522 -0.57629,19.89905 -0.97422,24.97176 -2.37366,30.25795 -1.7555,6.63132 -7.22684,20.15131 -8.46445,20.91619 -0.39388,0.24344 -1.07369,-0.413 -1.51069,-1.45873 z m 77.00672,-24.3657 c -0.2638,-1.24688 -0.65694,-3.13373 -0.87364,-4.19301 -0.70199,-3.4313 1.35753,-18.1702 3.4232,-24.49824 4.16536,-12.76021 10.02288,-22.01617 21.10821,-33.35489 7.12243,-7.28522 14.09989,-12.61855 25.98318,-19.86063 19.31293,-11.76994 26.35836,-16.79368 33.3081,-23.75027 8.13659,-8.14464 11.09198,-13.3167 11.00361,-19.25683 -0.0767,-5.14476 1.4965,-4.67439 2.36465,0.70707 1.70985,10.59962 -1.45528,30.24007 -6.7581,41.93513 -4.03037,8.88878 -12.8699,21.58249 -20.6275,29.62143 -9.33196,9.67039 -17.6115,16.51796 -37.97337,31.40583 -9.28933,6.792 -19.53365,14.86063 -22.76518,17.93027 -3.23154,3.06966 -6.28908,5.58118 -6.79453,5.58118 -0.50545,0 -1.13485,-1.02017 -1.39863,-2.26704 z m -55.13577,-12.77791 c -2.83204,-38.63876 -1.55734,-73.00903 3.64549,-98.29519 3.3988,-16.51845 11.00627,-42.15942 14.77293,-49.7921 11.19206,-22.67942 18.14905,-32.03385 13.26378,-17.8346 -4.6806,13.60442 -5.6907,33.00584 -2.96227,56.89757 1.87649,16.43157 2.64165,47.13127 1.43042,57.39004 -1.65604,14.02603 -6.68589,28.17963 -14.70653,41.38303 -4.15149,6.83409 -12.41648,17.05239 -13.79269,17.05239 -0.85385,0 -1.28187,-1.76303 -1.65113,-6.80114 z m 35.79898,-53.58473 c 8e-5,-1.02018 0.55654,-4.76252 1.23657,-8.31633 1.96258,-10.25619 1.58923,-21.55477 -1.21769,-36.85118 -3.09998,-16.89346 -3.81618,-27.6686 -2.55827,-38.48872 3.09754,-26.64405 13.63555,-42.17029 33.52094,-49.38831 5.84964,-2.12331 18.16282,-3.91474 21.37172,-3.10936 2.81095,0.70551 2.18112,2.56566 -2.96079,8.74429 -14.1955,17.05762 -22.11496,40.56755 -25.90971,76.9163 -2.41839,23.165 -7.62768,36.68546 -18.81929,48.84455 -3.64566,3.9608 -4.66369,4.32072 -4.66348,1.64876 z m 29.95205,-7.41943 c 0.0502,-0.56676 -0.40964,-3.25631 -1.02189,-5.97676 -3.16308,-14.05477 3.55773,-46.82473 16.14641,-78.72834 19.62867,-49.74504 54.00945,-101.37528 81.03332,-121.68922 13.60252,-10.22506 28.85611,-15.8283 36.42631,-13.38084 10.30253,3.33086 12.94303,18.88487 7.65273,45.07851 -6.21566,30.77559 -22.96592,64.43605 -46.92744,94.30337 -13.72417,17.10673 -37.74851,40.53211 -56.73027,55.31587 -11.08912,8.63664 -33.32723,24.45912 -34.37672,24.45912 -0.4555,0 -0.82817,0.37097 -0.82817,0.82438 0,0.45341 -0.32976,0.82438 -0.73279,0.82438 -0.40303,0 -0.6917,-0.46371 -0.64149,-1.03047 z"
       id="path1" />
  </g>
</svg>
