<?xml version="1.0" encoding="UTF-8" standalone="no"?>
<!-- Created with Inkscape (http://www.inkscape.org/) -->

<svg
   width="105.83333mm"
   height="69.556404mm"
   viewBox="0 0 105.83333 69.556404"
   version="1.1"
   id="svg1"
   xml:space="preserve"
   xmlns:inkscape="http://www.inkscape.org/namespaces/inkscape"
   xmlns:sodipodi="http://sodipodi.sourceforge.net/DTD/sodipodi-0.dtd"
   xmlns="http://www.w3.org/2000/svg"
   xmlns:svg="http://www.w3.org/2000/svg"><sodipodi:namedview
     id="namedview1"
     pagecolor="#ffffff"
     bordercolor="#000000"
     borderopacity="0.25"
     inkscape:showpageshadow="2"
     inkscape:pageopacity="0.0"
     inkscape:pagecheckerboard="0"
     inkscape:deskcolor="#d1d1d1"
     inkscape:document-units="mm"><inkscape:page
       x="1.169075e-21"
       y="0"
       width="105.83333"
       height="69.556404"
       id="page2"
       margin="0"
       bleed="0" /></sodipodi:namedview><defs
     id="defs1" /><g
     inkscape:label="Layer 1"
     inkscape:groupmode="layer"
     id="layer1"
     transform="translate(-52.083333,-113.72181)"><path
       style="fill:#1a1a1a;stroke-width:0.883007"
       d="m 122.69095,183.0065 c -1.69776,-0.1002 -8.30662,-1.95454 -3.4394,-3.3671 6.91383,-4.99288 11.54457,-13.4703 16.37686,-21.2434 3.58129,-4.82682 8.14205,-8.42665 13.08585,-10.45454 -6.01248,-3.86717 -10.32396,-11.069 -12.52921,-19.10459 -2.02692,-5.40176 -4.67267,-10.81735 -8.84382,-13.8529 4.23691,-1.73412 8.94666,-1.27186 13.20876,0.041 9.58725,4.23293 15.45099,16.8694 17.22384,29.11937 1.24005,13.39318 -5.76472,25.64494 -14.39291,32.22398 -6.10284,4.93588 -13.44146,7.84298 -20.68997,6.63819 z m -50.851989,-0.8318 c -8.025538,-0.58788 -17.25443,-5.86433 -19.311956,-16.75504 -2.140718,-11.88586 3.80397,-23.16616 10.562974,-30.54414 14.145667,-14.78073 32.739025,-21.42361 50.804261,-21.14534 8.55125,0.39769 18.17418,4.55655 22.06395,15.17509 0.97884,2.43281 3.24527,10.1743 -0.52811,5.97792 -3.62533,-3.427 -8.13855,-4.2998 -12.52547,-3.71495 -12.76656,1.10781 -24.073766,9.59229 -36.125491,14.21928 2.320307,2.63853 7.723643,3.48627 11.009925,6.03316 10.426336,6.2059 22.285876,11.65572 33.810026,7.35112 4.05413,-0.007 -2.11923,7.45752 -3.31176,9.46365 -9.29993,12.05669 -25.97937,14.41636 -36.191654,2.89886 -5.426896,-5.33203 -11.411774,-11.96727 -18.790817,-10.48812 -4.741293,-0.2062 -11.975445,6.70162 -7.170603,12.66854 2.25886,5.07184 12.843929,1.00081 7.619595,-3.90145 -1.892892,-2.3605 -7.534143,0.61405 -3.294452,-3.14321 4.263074,-2.96534 11.298779,-1.76302 13.834454,3.83253 1.165774,6.29237 -3.996238,9.96404 -7.998605,11.28978 -1.446273,0.52787 -2.950335,0.82607 -4.456267,0.78232 z m 45.900879,-23.47621 c -8.57303,-1.76954 -16.22786,-7.39125 -24.290417,-11.0863 -1.850709,0.0687 -6.390855,-2.543 -1.987771,-3.14293 9.139388,-2.60901 17.664288,-7.77934 26.601848,-11.16821 6.80372,-2.02497 15.15327,-1.50623 19.86286,6.05436 1.51924,3.36731 5.68336,5.63353 6.55959,8.27693 -3.45711,2.77204 -7.10719,5.14488 -10.42008,8.27364 -5.00538,3.27352 -10.8397,3.66093 -16.32603,2.79251 z"
       id="path1"
       inkscape:export-filename="paisley.png"
       inkscape:export-xdpi="96.059998"
       inkscape:export-ydpi="96.059998" /></g></svg>
