<?xml version="1.0" encoding="UTF-8" standalone="no"?>
<!-- Created with Inkscape (http://www.inkscape.org/) -->

<svg
   width="105.83333mm"
   height="65.983284mm"
   viewBox="0 0 105.83333 65.983284"
   version="1.1"
   id="svg1"
   xml:space="preserve"
   xmlns="http://www.w3.org/2000/svg"
   xmlns:svg="http://www.w3.org/2000/svg"><defs
     id="defs1" /><g
     id="layer1"
     transform="translate(-52.083333,-115.50836)"><path
       style="fill:#1a1a1a;stroke-width:0.45457"
       d="m 136.26553,181.4294 c -13.05742,-0.6623 -26.43821,-2.85068 -38.03053,-9.19255 -2.00223,-0.61188 -6.76782,-6.0615 -3.6677,-1.5721 1.55179,2.18865 5.01273,3.20147 2.29283,5.94191 1.9046,1.48657 5.2711,2.80229 6.76465,2.70817 -2.7158,2.52419 -6.91557,0.18238 -10.09725,1.56654 -1.06387,-2.85173 -7.99055,1.60674 -7.47341,-0.83744 1.43761,-1.96487 9.17912,-2.10626 4.83395,-5.04096 -2.56115,-2.81118 -2.45507,2.24724 -5.77485,1.77516 -2.005633,0.34954 -4.029269,1.04215 -0.801865,1.20095 5.081605,0.54932 -0.550109,1.36901 -2.608495,0.65457 -2.469446,1.6771 -4.269573,-1.13846 -6.875198,0.69547 -2.139856,0.0656 -4.299893,-0.25844 -0.901249,-0.69388 2.006677,-2.88511 9.525834,-1.00627 8.939965,-4.78082 -4.196393,-1.4824 -8.811765,-1.68697 -13.054177,-3.16431 -6.580289,-1.97631 -12.422359,-6.53904 -16.124652,-12.30267 -3.329164,-6.31288 -1.300348,-14.60686 4.454142,-18.78163 1.305888,-1.28733 6.320529,-3.55019 2.193246,-0.92689 -2.885945,0.22072 0.948708,3.03516 1.033598,0.18057 2.587666,-2.68898 3.175525,2.6014 -0.003,2.22283 2.211096,1.29887 4.377133,4.19478 5.65227,0.99875 2.605526,-3.27123 2.918715,2.96736 -0.449659,2.15727 4.396063,2.23312 9.485924,3.45292 14.399735,2.94092 -2.136616,-3.20221 5.931219,-6.37757 2.733055,-1.4323 -3.344194,2.93781 -1.180568,7.62369 1.940494,9.70602 5.16529,3.62557 12.1138,3.56348 18.02637,2.11884 1.79088,-1.12907 4.67054,-1.48545 5.95759,0.26064 0.45537,1.27016 0.96987,-0.78212 2.44547,-0.01 -2.72213,2.557 -8.55997,3.79004 -12.9256,3.90194 -8.07983,0.4298 -17.187311,-1.42169 -22.491561,-8.02574 -1.928367,-0.94056 -1.411938,-6.35011 -1.812447,-5.79549 -0.720719,5.60112 4.705452,9.56601 9.228464,11.61883 6.165944,2.89452 13.135004,2.48874 19.732674,2.10796 6.60557,4.93723 14.66224,7.41691 22.78131,8.33042 5.38373,0.82824 11.36626,0.31796 16.2401,2.70539 -1.99455,-0.41786 -8.24236,-0.71759 -7.87564,-0.1182 6.06752,0.27724 12.64526,0.11697 18.03517,3.27863 -2.10888,-0.16688 -8.23835,-0.25763 -9.38119,0.69605 4.46963,-0.39089 9.18929,-0.57399 13.41609,1.1499 -1.509,0.59868 -8.1296,0.99215 -3.20766,1.04491 2.16819,-0.0914 6.75241,-1.44139 2.08403,0.15883 -6.30834,2.31162 -12.96366,2.81479 -19.62904,2.55306 z M 95.20957,160.76984 c 1.90529,-3.43694 -2.5773,0.33088 0,0 z m 2.11977,-0.12954 c 1.54346,-2.55605 -1.6898,-0.58466 -0.29152,0.24371 z m 2.36115,-0.11997 c 1.30063,-3.27461 -2.28041,1.03146 0,0 z m -6.84176,-0.0157 c 2.24248,-2.73566 -2.09861,-0.19198 0,0 z m 8.88341,-0.0818 c 0.95124,-3.09108 -1.98765,0.22782 0,0 z m -11.19576,-0.35265 c 1.84358,-2.39274 -1.89282,-0.59609 -0.5436,0.37523 z m 13.66817,0.0849 c 0.90519,-3.1068 -2.0711,0.2399 0,0 z m -16.61106,-0.54706 c 4.37522,-4.09794 -3.284185,0.0562 0,0 z m 18.84045,-0.0979 c 0.59966,-3.29417 -1.85177,0.63733 0,0 z m 2.02479,-0.51304 c 0.68517,-2.55508 -1.76531,0.0283 0,0 z m -23.09979,-0.7784 c 2.08901,-3.17274 -3.383631,1.437 0,0 z m -2.693052,-1.39448 c 2.665822,-3.11865 -4.311992,0.79272 2e-5,0 z m -2.010646,-1.84483 c 2.844375,-2.22214 -4.344503,-0.12547 -0.654979,0.19083 l 0.654979,-0.19084 z m -0.706909,-1.92007 c 0.932698,-2.57439 -5.127291,0.82279 -0.638129,0.16973 z m -0.627559,-2.15036 c 1.018378,-2.29532 -5.330831,0.34423 -0.660049,0.14832 z m 0.509239,-2.12307 c 0.0484,-2.50256 -6.328329,0.31456 -1.301008,0.18123 l 0.499539,-0.0262 z m 62.208557,22.30087 c -10.8779,-0.80879 -21.89236,-2.36061 -32.06467,-6.45778 -2.22569,-1.02479 -8.02693,-3.4524 -2.70895,-4.08764 4.19504,-2.63034 8.6997,-3.11683 13.10872,-0.43781 4.67551,1.61986 -4.61465,1.14289 -5.25146,2.58132 6.14681,-2.16332 12.77384,-0.5215 18.29115,2.56241 4.33273,1.94286 8.48872,5.33256 13.38915,5.35322 -1.2514,0.69051 -3.29608,0.49062 -4.76394,0.48628 z m -23.99419,-12.54267 c 0.072,-0.14653 8.86303,-0.20972 2.71535,0.0319 -0.90488,0.0172 -1.81177,0.0309 -2.71535,-0.0319 z m -24.59555,-0.42838 c -4.89758,-0.45751 -10.702142,-3.3202 -11.291371,-8.74319 1.486347,-2.69943 2.852521,-5.86356 5.801081,-7.30968 -0.68153,1.75552 -0.32593,3.73737 0.24177,0.86126 0.24708,-1.29993 -0.56126,3.26374 2.02493,0.91422 7.6821,-0.78375 12.8793,5.91541 19.35044,8.72853 5.44902,2.56768 11.33618,5.11983 17.47939,4.81096 -6.55586,1.67123 -13.60205,0.9026 -20.04733,-0.96346 -1.52366,-0.50295 -7.99873,-2.83168 -3.12701,-0.89965 5.21645,1.34213 -3.43204,2.66977 -5.29333,2.70576 -1.71141,0.10025 -3.43431,0.0982 -5.13857,-0.10475 z m 9.34143,-6.32131 c 2.10122,0.33708 4.70041,-1.76419 1.31563,-1.19353 -3.18444,1.46871 -11.29862,0.31517 -11.53444,0.82103 3.3441,0.8149 6.81868,0.56192 10.21881,0.3725 z m 21.29777,6.42546 c 0.66232,-0.19521 0.1202,0.2105 0,0 z M 76.882468,147.02948 c -2.329146,-1.58527 3.325794,-6.06465 2.854355,-2.43672 -0.369029,1.16904 -1.428297,2.73778 -2.854355,2.43672 z m -3.971773,-0.63737 c -2.219786,-2.88603 5.250941,-5.54261 2.549696,-1.18378 -0.535519,0.80974 -1.553138,1.43207 -2.549696,1.18378 z m -3.516194,-1.11654 c -1.678357,-2.84265 5.506081,-4.62409 2.507426,-0.80258 -0.572429,0.70539 -1.616407,1.21041 -2.507426,0.80258 z m 9.321054,-2.20659 c -5.78761,-0.49731 -12.060339,-1.78848 -16.414921,-5.91162 2.225856,-1.17421 7.151577,-2.89975 7.228727,-4.48612 -2.767245,2.30081 -7.206497,1.49158 -9.857743,1.77784 -1.863186,2.25285 -3.185794,6.3963 -5.965869,2.52015 -2.779535,-3.65781 2.301786,-5.94009 1.161548,-9.54272 1.830417,-3.74332 5.44693,-6.32828 8.582055,-8.90945 3.017634,-1.50158 8.280095,-1.94114 10.273152,-3.0087 0.671619,2.84408 -4.906812,4.82776 -4.297933,5.55825 8.088776,1.15083 15.954489,6.6623 17.875709,14.92711 0.60724,2.60433 2.57558,6.81058 -1.76527,6.55116 -2.229603,0.46557 -4.544919,0.65208 -6.819455,0.5241 z m 3.526344,-2.50465 c 2.060766,-0.20401 5.585131,-1.80287 1.445507,-0.50256 -5.850659,1.48287 -12.051409,0.0773 -17.08421,-3.11434 4.436662,3.34194 10.195452,4.48045 15.638703,3.6169 z M 56.036755,135.1951 c 1.212578,-1.40699 2.511405,-3.51773 -0.11088,-1.39383 -1.794957,1.37124 -0.0692,5.28111 0.11088,1.39383 z m 9.558913,-5.87846 c 1.683037,-0.0798 5.975589,-4.51339 2.375396,-3.24175 -2.122967,-1.25887 -9.711043,-0.53575 -7.658457,2.21147 1.547457,0.90664 3.496584,1.59213 5.283061,1.03028 z m -2.201186,-1.77157 c -5.65647,-2.77105 8.012136,-2.27579 2.081176,0.1716 -0.695609,0.0437 -1.407187,0.0247 -2.081176,-0.1716 z m 2.418666,-6.89245 c 1.829356,-0.72839 3.687673,-3.181 0.523709,-1.5472 -1.124038,0.16594 -2.858185,2.86895 -0.523709,1.5472 z m -2.154607,21.89558 c -2.360656,-3.14493 5.023692,-3.76598 1.646727,-0.2922 l -0.859298,0.32654 z"
       id="path1" /></g></svg>
